<svg xmlns="http://www.w3.org/2000/svg" viewBox="0 0 692 160">
  <path fill="#e88075" d="M181 38c0 51-79 51-78 0-1-51 78-51 78 0Zm508 47 1-2a2 2 0 0 0-1 2Zm-1 56c-1 2-2 2-4 2l1 1a2 2 0 0 0-2 0h1c-1 1-3 3-4 2-14 8-37-13-35-29-1-3-3 4-6 4a2 2 0 0 0 2 0c-1 3-5 6-7 8l1-3a35 35 0 0 0-3 3 2 2 0 0 0-1-2c-1 1 0 3-2 3 2-15 6-29 10-44l-9 31v-2c0 3-2 17-4 12 6-33 12-77 32-104l-1 3c8-7 8 11 7 16l1-8c-1 14-3 29-8 42 11-8 29-25 35-1-2 9-8 16-15 21 4-2 8-8 12-10-6 9-18 15-28 16 3 13 6 50 25 33l-1 2a10 10 0 0 0 3-1v1l1-1v3c4-3-2 4-1 2Zm-25-94v-1a2 2 0 0 0 0 1Zm-5 20a1 1 0 0 0 0 1Zm-1 2s1 0 0 0Zm-26 44v-1 1Zm3-11-1 1 1-1Zm1-6a28 28 0 0 0-1 5l1-5Zm4 27-1 1Zm6-36-6 19 6-18Zm7-4-1 1 1-1Zm1 4-1 2Zm25 6a1 1 0 0 0-1 0h1Zm1-1a21 21 0 0 0 6-6l-6 6Zm2-7-3 4a16 16 0 0 0 3-4Zm-1-4-11 11c3-1 7-5 8-8l-1 2 4-5Zm-25 3c6-6 11-12 18-17-7 2-14 11-18 17Zm4 0a10 10 0 0 0 1-1Zm-2-12v-1a2 2 0 0 0 0 1Zm-1 1v-1a2 2 0 0 0 0 1Zm-1 6a36 36 0 0 0 1-4l-1 5Zm2 8 1-2-3 4a9 9 0 0 0 2-2Zm0 4c5-4 7-9 11-13a68 68 0 0 0-10 13Zm15-6c17-20 0-9-8 0l10-10a60 60 0 0 0-16 18l2-3c-1 6 10-2 12-5Zm10 59a4 4 0 0 0 0-1Zm2-5h-1 1Zm1-1a4 4 0 0 0-1 1ZM506 27a15 15 0 0 0-2 3Zm-30 77-1 2 1-2Zm-123 22c0 5 1 9 4 13-10 11-22 0-21-12l-5 7 5-8-6 8c-40 47-35-68 13-55 9 13 12-7 16 0a6 6 0 0 1 2-1 14 14 0 0 1 1 4 21 21 0 0 0-1 3l1-2a29 29 0 0 1 0 5v-1c0 7-4 16-6 24l3-14c-4 12-9 26-7 37l1-8Zm-40-24-1 1Zm1-1h-1 1Zm9-3 6-7-7 8a5 5 0 0 0 1-1Zm0 16c4-9 9-16 17-23a33 33 0 0 0-7 6c-5 5-8 11-10 17Zm9-21a63 63 0 0 0-9 14c3-6 9-10 13-16a8 8 0 0 0-4 3Zm-15 0 3-3-3 4Zm-1 32Zm1-29c3-5 9-8 13-12-6 2-11 8-14 14a13 13 0 0 0 1-2Zm1 34 1-7c0 2-2 6-1 7Zm18-7-4 6c1-1 4-4 4-6Zm0-4c0-1 0 0 0 0Zm2-8c-5 5-10 14-14 21 5-6 11-14 14-21Zm2 12h-1a1 1 0 0 0 1 0Zm2-5c-2 2-1 5-2 8l2-8Zm0-2a2 2 0 0 0-1 1Zm2-23c-15 1-23 28-26 41 11-9 22-28 26-41Zm12 7-1 1 1-1Zm0-2v1Zm1-14-2 6a44 44 0 0 0 3-7 3 3 0 0 0-1 1Zm-6 5 6-9c-3 1-5 6-6 9Zm3 3c-2 0-1 3-1 4a8 8 0 0 0 1-4Zm-2 6a3 3 0 0 0-1 2 5 5 0 0 0 1-2Zm-7 1a4 4 0 0 0 1-2 3 3 0 0 0-1 2Zm0 2 1-3-1 3Zm6 1c-3 8-7 20-5 29 0-10 2-20 5-29Zm-1 32 4-29c-2 10-4 19-4 29Zm314-48a32 32 0 0 0-3 3Zm-89 21c-5 18-19 36-38 37-38-5-14-68 15-70 17-1 27 14 22 29l1-1v5Zm-10 4 1-1a1 1 0 0 0-1 1Zm-35-18h1Zm-2 5 1-2Zm1 0 13-15c-6 4-12 10-14 17a5 5 0 0 0 1-2Zm8 0a132 132 0 0 1-4 5l4-5Zm0 13v-1 1Zm1-3c2-6 7-12 10-19-5 6-7 12-10 19Zm1 7c2-11 9-19 16-28-8 5-16 19-16 28Zm12 10c4-8 18-39 8-40-15 5-32 68-8 40Zm9-12v-1l-1 3 1-3c-1 5-5 9-6 14a30 30 0 0 0 6-13Zm3 4 2-5c-2 2-5 13-2 5Zm1 7 6-14a114 114 0 0 0-6 14Zm10-20-10 23a98 98 0 0 0 10-23Zm-331 7a15 15 0 0 0 1-2l-2 4a6 6 0 0 0 1-2Zm185-28a2 2 0 0 0-1 1ZM280 44c-1 3 0 5-2 8 2 0 2-6 2-8Zm-2 10a1 1 0 0 0 1-1l-1 1Zm37 11a1 1 0 0 0 0-1v1Zm-67 36a5 5 0 0 0 1-2 9 9 0 0 0-1 2Zm-4 7 3-6Zm380 10-4 7c1 0-2 1-1 2-29 41-62-5-32-36 11-27 64-21 33 8l3-3c-1 1-6 5-5 1-5 4 2-5 2-6-2 1-3 4-4 6 0-4 3-8 5-11-21 9-42 75-4 33 8-9-5 6-7 10l12-13a11 11 0 0 1-1 3c1-2 4-3 1 1Zm-23-12c-3 3-4 7-5 11l5-11Zm1-16a96 96 0 0 0-6 8l14-15a68 68 0 0 0-8 7Zm2-3a4 4 0 0 0-1 1Zm21 1s0 1 0 0Zm-1 1v1-1Zm0 6a2 2 0 0 1-1 0l2-2-1 2Zm-1-8v1-2 1Zm-1 6a9 9 0 0 0-1 1 6 6 0 0 0 2-2 9 9 0 0 0-1 1Zm-1-9-5 3c-5 5-13 12-15 19 5-9 12-16 20-22Zm-12 6a27 27 0 0 0-5 7l13-13-7 6Zm-18 2 6-7a39 39 0 0 0-6 7Zm1 2a111 111 0 0 1 19-17c-9 2-18 13-23 20a16 16 0 0 0 4-3Zm2 34v1Zm1-7-1 2Zm1-3v-1a3 3 0 0 0-1 2Zm19 12a5 5 0 0 0 1-2 5 5 0 0 0-1 2Zm3-3-3 5 3-5Zm1-6v1a2 2 0 0 0 0-1Zm-116 5ZM363 81l-1 1v1Zm-33 54 1-1h-1Zm298-42v-2a5 5 0 0 0 0 2Zm-125 33c0 5 2 10 5 13-8 13-28 10-27-7 0-32 3-123 43-121 8 5 0 7-1 15 9-18 2 5-7 34l14-42c-1 14-7 25-10 39s-10 31-14 47a371 371 0 0 1-3 22Zm14-81c-8 17-10 36-15 54l15-54Zm2-9v2l4-11c-2 2-3 7-4 9Zm0-15a49 49 0 0 0-5 10l-4 11 9-21Zm-32 74v1a18 18 0 0 0 1-3l-1 2Zm-1 3h1v-1Zm4-10c-3 16-7 33-3 49 0-16 1-33 3-49Zm1-18c-1 6-4 14-3 20l3-20Zm1-4a6 6 0 0 0-1 2l1-2Zm1 70a48 48 0 0 0 0-8c-1 2 0 11 1 8Zm11-105a161 161 0 0 0-7 21c4-13 10-24 18-35-5 0-7 7-9 10v-1c-5 9-10 23-13 34l11-29Zm-8 67v1Zm4 41-2-10a29 29 0 0 0 2 10Zm0-63c3-11 10-22 10-34-6 15-13 39-14 55l4-21Zm-84 70h1-1ZM304 92c-21 45-65 88-55 7v-2c-54 110-50-4-29-54l-20 23c-1-2 0-4 1-6a25 25 0 0 1-2 5c-1-16 36-64 40-28l1-4c-2 29-11 57-14 85 20-24 28-57 47-81-3 8-7 13-9 21 3-6 6-16 11-20l-2 9c8-19 6 5 4 13l1-5c1 23-8 46-9 69 12-30 51-73 30-104 18-12 23 21 19 36v-1l-1 5a4 4 0 0 0-1 2l-1 2 1-1c-8 20-20 37-29 55a258 258 0 0 0 17-26Zm-96-46c-4 3-6 9-7 13l7-13Zm63 6v1c1-1 0-2 0 0Zm-6 0 1-1-1 2Zm-1 3a1 1 0 0 0 1-2l-1 2Zm-1 6 1-2-1 2Zm-4 17 1-3a8 8 0 0 0-1 3Zm-20-39v1-1Zm-1 2v-1Zm0 2v1-2Zm-1 4v1l1-3a7 7 0 0 0-1 2Zm-12 65a121 121 0 0 0 4-14c1-14 8-39 8-48-4 20-11 42-12 62Zm1-50s0-1 0 0Zm-8-1Zm-2 9 2-8Zm-1 3v1-1Zm0 2a1 1 0 0 0 0 1v-1Zm-3 16v-1Zm9-34-8 28v-2c-1 18-5 37-2 55 0-28 4-54 10-81Zm-2 33v-1 2Zm0-3a1 1 0 0 0 0 1Zm6-17v-7l-5 28 5-21Zm-1 24 1 2 7-35c-4 9-4 25-8 33Zm0 27a1 1 0 0 0 0 1Zm1-2v-1 1Zm1-5a1 1 0 0 0-1-1v5a17 17 0 0 0 1-4Zm0 10Zm2-5c10-14 22-29 27-46a520 520 0 0 0-26 46Zm22-27-6 12c3-3 5-8 6-11Zm1 32 1-1a4 4 0 0 0-1 1Zm0-5v-2a7 7 0 0 0 0 2Zm1 8h-1Zm0-11v-1 1Zm1 18Zm6-55a2101 2101 0 0 1-4 27 223 223 0 0 1 4-27Zm2 24c2-11 6-23 6-34-5 22-11 44-8 66 1-11-1-21 2-32Zm4 18c1-18 5-35 8-52a255 255 0 0 0-9 64l1-12Zm3-5 9-55a396 396 0 0 0-11 68l2-13Zm39-38a1 1 0 0 0 0-1Zm-9 15a73 73 0 0 0-7 14c6-7 12-20 15-28l-8 14Zm-5 3 5-10-5 10Zm-1-10 1-1-1 1Zm-2 4 1-2-1 3Zm-6 12c4-5 6-10 9-16a81 81 0 0 0-9 16Zm194-8c0 9-8 17-14 23 4-2 7-7 10-10-6 8-16 18-26 18-8 21 13 10 21 1l-6 7c4-2 5-5 8-7l-1 1c5 0-3 7-5 9h1c-16 24-46-1-36-25 3-22 39-52 48-17Zm-19-1c-9 11 2 0 6-4a22 22 0 0 0-6 4Zm-2 0a56 56 0 0 0-4 5l8-10-4 5Zm-7 15a23 23 0 0 0 4-7l-4 7Zm3-16 2-3-5 5a10 10 0 0 0 3-2Zm-9 0a22 22 0 0 0 2-3l-2 3Zm12-9c-5 1-11 7-13 12l13-12Zm-7 32a58 58 0 0 0 6-5c30-33 1-21-6 5Zm17-14-1 2c1 0 3-1 1-1Zm-5 9a28 28 0 0 0 4-7l-1 1v1l-10 10a34 34 0 0 0 7-5Zm5-2 3-3-6 7a32 32 0 0 0 3-3Zm5 0a63 63 0 0 0-6 6l6-6Zm208 39c0 1 0 0 0 0ZM363 85v-2l-1 4 1-2Zm264 9-4 4 4-4Zm-199 44c-1 0-3 4-3 2 0 2-1 3-3 2l1 1a2 2 0 0 0-2 0l1 1c-1 0-3 3-5 1-13 8-36-13-35-29-1-2-2 4-5 4a3 3 0 0 0 2 1l-7 7v-2l-2 2c-1-4-1 2-3 1 1-14 6-29 10-43l-9 30a26 26 0 0 1 0-3c0 3-2 18-4 13 6-33 12-77 31-104v3c8-7 7 11 6 16l1-8c0 15-2 29-7 43 26-30 50-4 20 19 4-1 8-8 12-10-6 9-19 15-28 17 3 12 6 50 25 32l-1 2 3-1-1 1h2l-1 2h2Zm-27-92v-1a2 2 0 0 0 0 1Zm-6 20v1Zm0 2v1-1Zm-26 44c-1 0-1 0 0 0Zm2-11v1-1Zm2-6-2 5 2-5Zm4 27-1 2Zm5-35-5 18 5-18Zm7-5v2-2Zm1 5v1Zm26 5a1 1 0 0 0-1 1l1-1Zm4-4a22 22 0 0 1-3 3 23 23 0 0 0 6-5 12 12 0 0 0-3 2Zm-4 0a16 16 0 0 0 3-4l-1 1-2 3Zm1-8-10 11c2-1 7-5 8-8l-2 2 4-5Zm-24 3c6-5 11-12 18-16-7 1-14 11-18 16Zm4 0-1 1a5 5 0 0 0 1-2Zm-3-12v-1a2 2 0 0 0 0 1Zm0 1a2 2 0 0 0 0 1Zm-1 7a19 19 0 0 0 1-5 16 16 0 0 0-1 5Zm2 7a17 17 0 0 0 1-2l-3 5a9 9 0 0 0 2-3Zm0 5 11-14a69 69 0 0 0-11 14Zm3 1c23-8 27-36 1-4l12-14c-5 4-12 12-15 18l2-3v3Zm22 52a5 5 0 0 0 0-2v2Zm2-5-1-1 1 1Zm1-2-2 1Zm-67-26-3 15 3-15Zm108-7v1l-1 1a3 3 0 0 0 1-2Z"/>
  <path fill="#f19e8c" d="M171 117c-1 13-37-3-38 10 0 6 10 4 14 4 6 0 6 10 0 10h-12C78 193-16 126 14 55c-7 2-22-3-9-9 5 0 34 2 20-9v-1c-7 2-25-2-11-9h20c57-55 153 14 121 85 4 1 16-2 16 5Z"/>
  <path fill="#fff" d="M118 72H64v-1a21 21 0 0 1 21-21 21 21 0 0 1 18 11 3 3 0 0 0 4 1 3 3 0 0 0 1-4 27 27 0 0 0-23-13 26 26 0 0 0-27 26l1 1H49a5 5 0 0 0-6 5v40a5 5 0 0 0 5 5h70a5 5 0 0 0 5-5V77a5 5 0 0 0-5-5ZM86 95v14a2 2 0 0 1-3 2 2 2 0 0 1-2-2V95a5 5 0 0 1-2-4 4 4 0 0 1 0-1 4 4 0 0 1 6-3 4 4 0 0 1 3 3 3 3 0 0 1 0 1 5 5 0 0 1-2 4Z"/>
</svg>
