<svg id="图层_1" data-name="图层 1" xmlns="http://www.w3.org/2000/svg" viewBox="0 0 463 112.9">
  <path d="M72.9,31.5A27.6,27.6,0,1,0,100.5,4,27.5,27.5,0,0,0,72.9,31.5Z" transform="translate(-1 -4)"
    style="fill:#e88075" />
  <path
    d="M121.2,87.2a3.4,3.4,0,0,1-3.4,3.3h-20a3.4,3.4,0,1,0,0,6.7h6.6a3.4,3.4,0,1,1,0,6.7H95.6A53.5,53.5,0,0,1,10.9,43.7H4.2A3.3,3.3,0,0,1,1,40.2,3.4,3.4,0,0,1,4.2,37H17.6a3.3,3.3,0,0,0,.9-6.5H10.9a3.4,3.4,0,0,1-3.5-3.2,3.3,3.3,0,0,1,3.2-3.5H24.9a53.5,53.5,0,0,1,85.2,60.1h7.7a3.4,3.4,0,0,1,3.4,3.4Z"
    transform="translate(-1 -4)" style="fill:#f19e8c" />
  <path
    d="M83.9,55.4H45.6v-.6A14.8,14.8,0,0,1,60.5,40.1a15.1,15.1,0,0,1,13,7.5,1.8,1.8,0,0,0,3.2-1.8,18.8,18.8,0,0,0-16.2-9.3A18.5,18.5,0,0,0,41.9,54.8v.6h-7A3.6,3.6,0,0,0,31.3,59V87.2a3.7,3.7,0,0,0,3.6,3.7h49a3.7,3.7,0,0,0,3.7-3.7V59A3.6,3.6,0,0,0,83.9,55.4ZM61,71.5v9.9a1.5,1.5,0,0,1-1.6,1.4A1.4,1.4,0,0,1,58,81.4V71.6h0a3.2,3.2,0,0,1-1.6-2.7,3.6,3.6,0,0,1,.2-1,3.1,3.1,0,0,1,3.9-1.9,3.4,3.4,0,0,1,2,2.2c0,.3.1.5.1.7A3.2,3.2,0,0,1,61,71.5Z"
    transform="translate(-1 -4)" style="fill:#fff" />
  <path
    d="M217.2,48.8l-.8,1.5L215.3,53c-.4,1.1-.8,2-1.2,2.9a15,15,0,0,1-.6,1.6,50.3,50.3,0,0,1-3.2,6.6c-1.2,2.2-2.4,4.3-3.7,6.4l-3.7,6.4a49.8,49.8,0,0,0-3.1,6.6c1.2-1.7,2.7-4,4.5-7s3.5-6.1,5.2-9.4,3.3-6.5,4.7-9.6a45.1,45.1,0,0,0,2.7-7.7h.2a9.5,9.5,0,0,1-.4,2.1c-.3.7-.6,1.4-.8,2l-1.4,3.5a36.5,36.5,0,0,1-1.4,3.5c-.6,1.4-1.6,3.3-2.9,5.8s-2.8,5.3-4.5,8.2-3.6,6-5.5,9.1a101.8,101.8,0,0,1-6,8.4,51.1,51.1,0,0,1-5.8,6.2,9.2,9.2,0,0,1-5.1,2.5,5.5,5.5,0,0,1-3.9-1.2,8.2,8.2,0,0,1-2.3-3.2,16.4,16.4,0,0,1-1.2-4.1c-.2-1.5-.3-2.8-.4-4a55,55,0,0,1,.4-9.1,52.3,52.3,0,0,0,.4-8.8v-.5c-.9,1.6-1.7,3.3-2.5,5s-1.5,3.3-2.4,4.9v1.3a33.8,33.8,0,0,0-4.2,6.2,36,36,0,0,1-3.9,6.2l-1.1,1.2a3.9,3.9,0,0,0-.8,1.4l-.6.4-.4.5a15.8,15.8,0,0,1-2.7,1.8,9.2,9.2,0,0,1-3.1,1,1.1,1.1,0,0,1-.8-.3,2.2,2.2,0,0,1-2.2-1.3,9.3,9.3,0,0,1-1.3-3.2,22.5,22.5,0,0,1-.6-3.6c-.1-1.3-.1-2.1-.1-2.7a123.8,123.8,0,0,1,1.7-26.4,195.8,195.8,0,0,1,6.5-25.6c-2.1,2.4-4.2,4.9-6.1,7.4l-6.2,7.3-.2-.4a8.8,8.8,0,0,1,.2-1.6l.3-1.6a8.4,8.4,0,0,1-.5,1.7,5.1,5.1,0,0,1-.7,1.7v-.2c-.1,0-.1-.1-.1-.3a12.9,12.9,0,0,1,.9-3.9,46.8,46.8,0,0,1,2.4-5.3c1-1.9,2.1-3.8,3.4-5.8s2.7-3.7,4-5.3a28.9,28.9,0,0,1,4-3.9,6.9,6.9,0,0,1,3.4-1.6l2.3.6,2.1.5a3.6,3.6,0,0,1,1.6,1.1,4.5,4.5,0,0,1,.6,2.6,10.9,10.9,0,0,1,.1,1.8,5.7,5.7,0,0,0,.3,1.8l.4-2.6a83,83,0,0,1-.9,9.8c-.4,3.3-.9,6.5-1.4,9.8s-1.1,6.5-1.7,9.7-1.1,6.5-1.5,9.7l-.5.6q-.5,3.1-1.2,6.6a28.9,28.9,0,0,0-.5,6.5v.3a1.6,1.6,0,0,0,.7-.9l.6-1c1.4-2.8,3-5.5,4.7-8.2s3.4-5.4,5.1-8.2,3.2-5.5,4.6-8.3a47,47,0,0,0,3.6-8.7c.4-1,.7-2.2,1.2-3.4s.9-2.6,1.4-3.8a30.1,30.1,0,0,1,1.7-3.6,12.7,12.7,0,0,1,2.1-2.9l1.1-1a4.1,4.1,0,0,1,1.3-.8,59.7,59.7,0,0,1-2.7,6.3,25.4,25.4,0,0,0-2.4,6.5c.4-.8.8-1.8,1.3-3.1s1-2.5,1.6-3.7a22.8,22.8,0,0,1,1.7-3.5,10.5,10.5,0,0,1,1.9-2.4l.2,1.1a22.5,22.5,0,0,0-.8,2.4,18.3,18.3,0,0,1-.6,2.5c.4-.9.8-1.8,1.1-2.7s.7-1.7,1-2.6a1.1,1.1,0,0,1,1.4.9,5.5,5.5,0,0,1,.3,1.7c0,.1,0,.7-.1,1.8s-.3,2.3-.4,3.5-.3,2.4-.4,3.5-.3,1.7-.3,1.8a1.3,1.3,0,0,1,.4-.7,6.9,6.9,0,0,0,.2-1.3,5.9,5.9,0,0,1,.2-1.3.8.8,0,0,1,.2.5v1.4c-.2,3.4-.6,6.9-1.1,10.3s-1.1,6.9-1.7,10.3-1.2,6.9-1.7,10.3a90,90,0,0,0-1.1,10.3l4.4-8.2,5-9.6c1.6-3.4,3.3-6.9,4.9-10.4s2.9-7.1,4.1-10.5a91.2,91.2,0,0,0,2.8-10.1,37,37,0,0,0,.8-9.1,7.5,7.5,0,0,0-.4-2.4,8.5,8.5,0,0,0-.9-1.4l-1.2-1.2a3.9,3.9,0,0,1-1.2-1.9l-.6-.4a1.9,1.9,0,0,1,.9-1.4,3.7,3.7,0,0,1,1.6-.5,7,7,0,0,1,4.6,1.4,14.4,14.4,0,0,1,3.3,4,16.9,16.9,0,0,1,2,5,22,22,0,0,1,.8,4.7,16,16,0,0,1-.6,5.4,25.6,25.6,0,0,0-1,5.4l.8-2.2a9.2,9.2,0,0,0-.2,1.9,2.1,2.1,0,0,1-.6,1.6h-.2v-.5c-.2.1-.3.4-.4.7a1.9,1.9,0,0,0-.2.7v.4h.5v.8l-.6.3Zm-71.4-.9a.4.4,0,0,1-.1.3A.4.4,0,0,0,145.8,47.9Zm4.5-8.6a5.3,5.3,0,0,0-1.5,1.5,17.1,17.1,0,0,0-1.3,2.3l-.9,2.5-.7,2.2a24.9,24.9,0,0,1,2.2-4.3A21,21,0,0,0,150.3,39.3Zm2.6,57.1a1.8,1.8,0,0,0,.3-1.1c.1-3.7.2-7.4,0-11a50.4,50.4,0,0,1,.6-11c.7-4.7,1.4-9.2,2.2-13.7s1.6-9.1,2.3-13.7c-.8,2.9-1.5,5.9-2.1,8.9s-1.4,6-2.2,9l-.2-1.7c-.2,4.9-.6,9.7-1.1,14.6a100.9,100.9,0,0,0-.5,14.5c.1.9.1,1.7.2,2.6A23.8,23.8,0,0,0,152.9,96.4Zm.3-29.4.2-.4h-.2l-.2.5Zm1.6-9.7h-.1c0,.3,0,.4.1.5Zm.1-1v-.2Zm.5-2.1v.3a2.2,2.2,0,0,0,.3-.9c.1-.5.3-1,.4-1.6s.3-1,.4-1.6a8.4,8.4,0,0,0,.2-1Zm1.5-5.8c-.1,0-.1.1-.1.2Zm.7,18.2v-.4l-.2.4.2.3Zm0-1.5h0v-.1Zm.4,2.2a14.2,14.2,0,0,0,.9-3.3c.4-1.6.7-3.3,1-5.1s.6-3.5.8-5.1a25.7,25.7,0,0,0,.5-3.9,28.3,28.3,0,0,0-.7,3c-.4,1.6-.7,3.4-1.1,5.3s-.7,3.9-.9,5.6S158.1,66.8,158,67.3Zm3.2,2.4v.8a3.7,3.7,0,0,0,.5-1.8,2.5,2.5,0,0,1,.4-1.7,23.1,23.1,0,0,1,.5-4.6c.4-1.6.7-3.1,1-4.6s.7-3.1,1-4.6a25,25,0,0,0,.5-4.7,21.1,21.1,0,0,0-.9,3.2c-.4,1.7-.7,3.5-1.1,5.5s-.6,3.9-.9,5.7a30.3,30.3,0,0,0-.5,3.8,4.2,4.2,0,0,1-.7,1.9h0a.9.9,0,0,0,.1.5A.6.6,0,0,1,161.2,69.7Zm.3,14.8-.2-.3-.3.5h.3Zm-.3,1a2,2,0,0,0-.1.7Zm.3-36.7c-.1,0-.2.1-.1.2a.4.4,0,0,1,.1.3ZM161.4,84l.3-1.4a7.6,7.6,0,0,0,.1-1.4,2,2,0,0,0-.1-.5Zm.4-3.8c.7-2.9,1.3-6,1.8-9s.9-6.1,1.5-9.1l1.8-10.6a93.1,93.1,0,0,0,1.4-10.6c-.1,0-.2.1-.2.3a.7.7,0,0,1-.1.5l-1.1,5.5c-.4,2.1-1,4.6-1.6,7.5s-1.2,5.8-1.8,8.9-1,5.9-1.4,8.7a50.5,50.5,0,0,0-.4,7.3Zm.4,7.2v.5l.3-.2Zm2.1-3.2a70,70,0,0,1,3.9-6.9l4.5-7c1.5-2.3,2.8-4.7,4.1-7.1a36.5,36.5,0,0,0,2.8-7.3,48.9,48.9,0,0,0-4.2,6.9c-1.2,2.4-2.5,4.7-3.8,7s-2.8,4.8-4.1,7.2-2.6,4.8-3.8,7.3v.2Zm4.2-44.1V38.6c0,.2-.1.4-.1.6a2,2,0,0,0-.1.7Zm.3-3.4v.5l.2.3V37Zm.1-.5.4-.4-.2-.4-.2.4Zm.2-1.3h0l.3.2v-.5Zm4,42.9c-.2.4-.3.9-.5,1.3a5.7,5.7,0,0,1-.8,1.3Zm.2-3a12.7,12.7,0,0,0,2.2-3.3,28.7,28.7,0,0,0,1.5-3.7c-.2,0-.3.2-.5.5l-.4,1-.6,1.1a1,1,0,0,1-.7.6l-1.1,2.2a1.1,1.1,0,0,1,0,.8Zm.1,2.6h-.1l2-3.8Zm2.1-4.3a2.6,2.6,0,0,1,.7-1.3l-.2.6Zm2.5,9.8a1.3,1.3,0,0,0-.1.6v-.6Zm0-1.3h-.1v-.1Zm0,4.8a2.6,2.6,0,0,0,0,.9Zm.1,2.5v0Zm1.1,3.9c.2-5.6.5-11.2.9-16.7a119.6,119.6,0,0,1,2.1-16.6,27.2,27.2,0,0,0-1.9,6.4c-.5,2.5-.9,5.2-1.2,8s-.4,5.5-.5,8.2-.1,4.9,0,6.7.1,1.4.1,2.1A6.7,6.7,0,0,0,179.2,92.8Zm0,.6v0ZM182,58.6a4.7,4.7,0,0,0,.6-1.5,2.1,2.1,0,0,1-.4.6l-.3.8Zm5.2-5.4c-1.4,6.1-2.7,12.3-3.7,18.7a100.6,100.6,0,0,0-1.2,19c.1.4.1,1,.2,1.7a3.5,3.5,0,0,0,.4,1.7s.1-.1,0-.3c.1-2.2.2-4.3.1-6.4s-.1-4.3,0-6.4a63.7,63.7,0,0,1,.8-6.9l1.5-7.6c.5-2.5,1-4.9,1.4-7.2a25.6,25.6,0,0,0,.5-5.8Zm-2.6-5.1h.2l.2-.9h-.2Zm.5-3.9a1.1,1.1,0,0,0,.4-.9h-.2Zm.8,48.3c0-.1.1-.2.1-.4a.4.4,0,0,0,.1-.3,61.2,61.2,0,0,0,.6-6.3c0-2.2.2-4.4.4-6.4.5-4.5,1-8.9,1.6-13.2s1.3-8.7,1.9-13.2a39,39,0,0,0-1.1,4.2q-.6,2.9-1.2,6.6c-.4,2.4-.7,5-1,7.8s-.7,5.4-.9,7.9-.4,4.9-.6,7a39.9,39.9,0,0,0-.1,4.7,1.9,1.9,0,0,0,.1.8A2.5,2.5,0,0,0,185.9,92.5Zm-.2-49.7h.2v-.6h-.1Zm1.4,47.3a6.2,6.2,0,0,0,.6-2.4c.2-1.4.4-3.2.6-5.2s.5-4.4.8-6.8.5-4.9.8-7.1.6-4.3.9-6.1a23,23,0,0,1,.9-3.9,5.2,5.2,0,0,1-.1-2.2l.6-2.6c.3-.9.5-1.8.7-2.6a5.5,5.5,0,0,0,.3-2.5,1.9,1.9,0,0,0-.1-.8,27.8,27.8,0,0,0-1.1,4.3c-.4,2-.8,4.5-1.3,7.3s-.9,5.8-1.4,8.9-.8,6.2-1.2,9-.6,5.3-.8,7.5a26.9,26.9,0,0,0-.2,4.5Zm2.1-47.4v.2l.5-.7h-.2Zm4.8.1.3.5-.3.4v-.9Zm0-.6a6.1,6.1,0,0,0,.4-2.4,7.9,7.9,0,0,1,.5-2.5v.3a19.3,19.3,0,0,0-.1,2.4,6.1,6.1,0,0,1-.7,2.4Zm4.3,30.9a24,24,0,0,0,2.7-4.6c.8-1.6,1.5-3.3,2.2-5l-2.7,4.7A30.6,30.6,0,0,0,198.3,73.1Zm3.8-8.7-.5.8-.3.9a1.8,1.8,0,0,0,.5-.8Zm9.7-5.7c-1.6,2.9-3.2,5.8-5,8.7a42.9,42.9,0,0,0-4.3,8.9,15,15,0,0,0,2.1-3c.9-1.6,1.8-3.4,2.8-5.3s1.9-3.7,2.7-5.5Zm-8.7,3.9c-.1,0-.2,0-.3.2s-.1.2-.2.4Zm3.6.8a17.5,17.5,0,0,0-1.8,2.9c-.5,1.1-.9,2.1-1.3,3.2.5-1,1-2,1.6-3Zm5.1-5.4v.4l.3-.4v-.4Zm5.2-8.5c0,.2,0,.2-.1.3h-.1Z"
    transform="translate(-1 -4)" style="fill:#e88075" />
  <path
    d="M211.7,85.3V83.4a5.2,5.2,0,0,1,.3-1.8c.8-3.3,1.7-6.4,2.5-9.3a31.1,31.1,0,0,1,4.3-8.8,43.2,43.2,0,0,1,3.5-4.2,37,37,0,0,1,4.2-3.7,46.7,46.7,0,0,1,4.9-2.7,14.1,14.1,0,0,1,5.4-1.1,8.1,8.1,0,0,1,5.4,1.4,17.5,17.5,0,0,1,3.6,4.3,7.2,7.2,0,0,0,1.5-1.1c.6-.6,1.2-1,1.8-1.5a9.4,9.4,0,0,1,1.8-1.2,2.9,2.9,0,0,1,1.7-.6c.2,0,.3,0,.3.1a.7.7,0,0,1-.1.6c-.1.2-.2.3-.2.4h.1a1.9,1.9,0,0,1,.9-.4h.9l-.2.3a.8.8,0,0,0-.1.4c0,.1,0,.2.1.2h.2l1,.3.2.9a23.4,23.4,0,0,1-.9,2.4c-.4.8-.7,1.6-1.1,2.3l.4-.4a44.4,44.4,0,0,1-2.3,7.1c-1,2.6-2.1,5.3-3.1,8s-1.9,5.4-2.7,8a21.4,21.4,0,0,0-1,6.7,2.1,2.1,0,0,0,.4,1.5l.6.8.6.5a1,1,0,0,1,.3.8,5.5,5.5,0,0,1-2.9,1.8,14.7,14.7,0,0,1-3.4.5,4.8,4.8,0,0,1-3.1-.7,7,7,0,0,1-2-2.2,8.2,8.2,0,0,1-.9-2.9c-.2-1.1-.3-2.1-.4-3.1V84.2c-.7.8-1.6,1.7-2.5,2.9s-2,2.2-3,3.3a22,22,0,0,1-3.4,2.8,6.5,6.5,0,0,1-3.3,1.3h-3.4a6.1,6.1,0,0,1-2.5-.7,7.4,7.4,0,0,1-2-1.6,16.9,16.9,0,0,1-2-2.8,13.6,13.6,0,0,1-.2-2C211.8,86.7,211.8,86,211.7,85.3Zm9-19.2h-.6Zm.2,15.3v0Zm.2-16.3v.3l.2.2.2-.3Zm.6,19.9a4.1,4.1,0,0,0,1-2.1c.3-.8.5-1.6.7-2.3l-1.7,3ZM241,61.6a8.2,8.2,0,0,0-4.9,2.3,31.3,31.3,0,0,0-4.3,5.1c-1.4,1.9-2.7,3.9-3.9,5.9a33.9,33.9,0,0,1-3.4,4.7,10.8,10.8,0,0,1-.7,1.8l-.8,2.1c-.3.8-.6,1.5-.8,2.2a6.1,6.1,0,0,0-.3,1.7h0a6.7,6.7,0,0,0,2.7-1.8,39.3,39.3,0,0,0,4.1-4.1c1.5-1.6,3-3.5,4.6-5.4s3-3.9,4.3-5.8,2.4-3.6,3.2-5a8.5,8.5,0,0,0,1.2-3.2c0-.3-.1-.5-.3-.5Zm-7.7-6.2a5.7,5.7,0,0,0-2.8.9,26.4,26.4,0,0,0-2.9,2.1l-2.8,2.5a14.9,14.9,0,0,0-1.8,2.4l.9-.7,1.4-1.3,1.5-1.4,1.2-1.1,1.2-.6,1.7-1,1.5-1C232.9,55.8,233.2,55.6,233.3,55.4Zm-7.1,3.4a8.8,8.8,0,0,1-1,1c-.5.5-.8.8-.8.9Zm13.5,2.3a20.6,20.6,0,0,0-5.1,2.9,22.2,22.2,0,0,0-3.8,3.7,35.2,35.2,0,0,0-3,4.5q-1.4,2.4-2.7,5.1l1.1-2a12.8,12.8,0,0,1,1.1-2,47.1,47.1,0,0,1,2.8-4.1,24.2,24.2,0,0,1,2.7-2.8l3-2.4ZM225.9,86.5q.3,0,1.2-.9l2.1-2.2c.8-.9,1.6-1.9,2.6-2.9a31.5,31.5,0,0,0,2.4-3l1.9-2.5c.5-.7.8-1.1.8-1.4h-.1a35.9,35.9,0,0,0-2.5,2.7c-1,1.1-2,2.2-3,3.5l-3,3.7Zm.9-21.8c.2,0,.5-.3,1-.7l1.6-1.4,1.5-1.5,1.2-1.1a14.6,14.6,0,0,0-2.8,2.1A30.7,30.7,0,0,0,226.8,64.7Zm.5,5.2a18473772267469.8,18473772267469.8,0,0,1,.8-1,19.1,19.1,0,0,1,4.3-4.2,28.5,28.5,0,0,0,4.4-4.1,5.4,5.4,0,0,0-2.5,1.3,32.5,32.5,0,0,0-2.7,2.6,34.8,34.8,0,0,0-2.6,3A15.9,15.9,0,0,0,227.3,69.9Zm7,13.4c-.1,0-.3.3-.8.8l-1.4,1.7-1.5,1.9-1.3,1.5,2.5-2.9Zm.2-1.6a7.9,7.9,0,0,0-1.7,1.9,13.3,13.3,0,0,1-1.4,1.9l.8-.8,1-1.1a7.6,7.6,0,0,0,.8-1.1Zm.3-3-.3.2v.2h.3l.3-.3Zm1.9,2.9a.7.7,0,0,0,.1.5Zm1.5-2.8c-.3.9-.5,1.7-.7,2.5a20.2,20.2,0,0,0-.4,2.6,7.3,7.3,0,0,0,.8-2.5,23.8,23.8,0,0,1,.5-2.6Zm.5-1.5-.3.3v.3Zm6.9-8.7c-.5,1.2-1.1,2.5-1.7,4.1s-1.3,3.2-1.9,5a34.3,34.3,0,0,0-1.4,5,13.9,13.9,0,0,0-.5,4.2v.5a2.7,2.7,0,0,0,.3-1.2,5.9,5.9,0,0,1,.2-1.3,42.1,42.1,0,0,1,2.1-8.3C243.7,73.9,244.7,71.2,245.6,68.6ZM244.3,64c-.1,0-.3.2-.5.6l-.6,1.1-.6,1.2-.4.7,1.3-1.8A6.2,6.2,0,0,0,244.3,64Zm-1.3.9a1.8,1.8,0,0,0-.5.7.8.8,0,0,0-.2.7l.5-.7ZM242.8,90c.6-3.2,1.3-6.3,2.2-9.4s1.8-6.2,2.8-9.3c-1.2,3.1-2.2,6.1-3.2,9.2A48.4,48.4,0,0,0,242.8,90Zm1.4-.1a108.9,108.9,0,0,1,4.3-14.8c1.9-4.8,3.6-9.6,5.2-14.5l-2.6,6.2c-1.2,2.7-2.3,5.4-3.3,8.2s-2,5.6-2.7,8.2a21.8,21.8,0,0,0-1.1,6.2V90Zm2-22.1.3-.8a2.2,2.2,0,0,0,.1-.8l-.5.9Zm5.4-12.9a2.7,2.7,0,0,0-1.3.8l-1.4,1.4-1.2,1.8-1,1.3h.5l2.3-2.5A13.9,13.9,0,0,0,251.6,54.9Zm-4.2,9.9c.1,0,.3-.4.6-.9a8.7,8.7,0,0,1,.5-1.2v-.2c-.4,0-.7.3-.8.9A11.5,11.5,0,0,0,247.4,64.8Zm1.7,2.9-.3.8.3-.2Zm.4-.8-.3.3v.2l.2-.4Zm2.5-9.6c-.2,0-.3.1-.6.5l-.7,1.2a10,10,0,0,0-.8,1.4l-.5.9c.1-.2.4-.5.6-.9l.9-1.2.7-1.2Zm3.5-1.5c-.2,0-.6.5-1,1.2l-.9,1.5Zm.1,1.3-.6,1.6a2.6,2.6,0,0,1-.8,1.2Z"
    transform="translate(-1 -4)" style="fill:#e88075" />
  <path
    d="M294.5,100.5a.5.5,0,0,1-.4-.5,4.2,4.2,0,0,1-.4,1,1,1,0,0,1-.8.7l-.4-.3H292l.5.8-.5-.2h-.7l.6.4-1.1.9a2.1,2.1,0,0,1-1.2.5h-.4l-.3-.3c.2.4.2.7.1.8a4.8,4.8,0,0,1-1.8.5,18.1,18.1,0,0,1-7.5-1.4,26.8,26.8,0,0,1-6.9-4.1,22.7,22.7,0,0,1-5-6.1,16.7,16.7,0,0,1-2.2-7.5V84.7l-.3-.6h-.2a8.9,8.9,0,0,0-.5,1,.9.9,0,0,1-.6.7,1.2,1.2,0,0,1-.7,1.1,4.1,4.1,0,0,0-1.1.7l.8.2c0,.2-.2.5-.6,1l-1.2,1.4-1.4,1.4-1,1,.2-1.4-1.7,1.9v-.7l-.4-.4h-.4a6.4,6.4,0,0,0-.2.9c0,.4-.2.6-.5.6h-.3V92.2a56,56,0,0,0,1.2-5.9c.3-2.1.6-4.1,1-6.1s1.2-5.2,1.9-7.8,1.3-5.1,1.9-7.7c-1.1,3.4-2,6.8-2.8,10.1s-1.7,6.8-2.5,10.2V83.4a.4.4,0,0,1,.1-.3H256a10,10,0,0,0-.2,1.6,1.5,1.5,0,0,0,.2.8,18,18,0,0,1-.5,1.9,12.1,12.1,0,0,0-.5,1.8c.1.1.1.3.1.6l-.3,1.1-.3,1.1a1.6,1.6,0,0,1-.3.6h-.5c0-.3-.1-.6-.1-1.1a38.2,38.2,0,0,1,.5-5.6c.4-2.5.9-5.6,1.5-9s1.4-7.2,2.3-11.2,1.9-8.1,2.9-12.1,2-8,3.1-11.7,2.2-7.1,3.3-10a56.9,56.9,0,0,1,3.1-7.1c1-1.7,1.9-2.7,2.6-2.8l.3.3-.2.5-.2,1.6.6-.4.6-1.1,1.5.4a9.1,9.1,0,0,1,1.5,2.1,6.1,6.1,0,0,1,.6,2.5v1.4c-.1.7-.1,1.5-.2,2.2a17,17,0,0,0-.1,2.2c-.1.6-.1,1-.2,1h.1a5.6,5.6,0,0,0,.2-1,7.6,7.6,0,0,0,.1-1.5c0-.6.1-1.1.1-1.6a6.6,6.6,0,0,0,.1-1.3,113.3,113.3,0,0,1-1.1,14.3,69.4,69.4,0,0,1-3.3,14,11.5,11.5,0,0,0,3.7-2.5l3.2-3.2a23.4,23.4,0,0,1,3.5-2.9,7.9,7.9,0,0,1,4.4-1.3,4.6,4.6,0,0,1,2.7.7,12.6,12.6,0,0,1,2.6,2.1,9.8,9.8,0,0,1,1.8,2.7,6.3,6.3,0,0,1,.8,2.8v.6a.8.8,0,0,1-.2.5,16.2,16.2,0,0,1-3.3,7.3,22.9,22.9,0,0,1-5.7,5.5v.3a3.8,3.8,0,0,0,1.6-1l2.2-2,2.2-2.3c.6-.8,1.2-1.3,1.5-1.7h.1a3.1,3.1,0,0,1-1.1,2L290.6,68a28.6,28.6,0,0,1-3,2.2l-2.2,1.4a3.9,3.9,0,0,1-1.4,1,6.6,6.6,0,0,1-1.9.9l-2,.7-1.7.3H277c-.6,0-.9.2-.9.5a7.4,7.4,0,0,0,.2,1.2,5,5,0,0,0,.3,1.6l.3,1.5a2.3,2.3,0,0,0,.4,1,1.1,1.1,0,0,0,0,.8,3.1,3.1,0,0,0,.2.8,4.6,4.6,0,0,1,.5,1.4,25.6,25.6,0,0,1,.9,2.6,26.8,26.8,0,0,1,.7,2.7l.6,1.7c-.3.1-.3.4,0,.7l.7.5.9,2.6a27.7,27.7,0,0,0,1,2.6v.5l1.9,1.6a4.6,4.6,0,0,0,2,1.3l1.8-.7a4.5,4.5,0,0,0,1.6-.9l1-.3,2.3-1.9-.5,1.4a1.2,1.2,0,0,0,.8-.4l.8-.5-.2.9,1.2-.5-.2,1.3-.4.4h.5l.5-.3c.1,0,.1,0,.1.2ZM256.4,82h-.1v.2l.2.3Zm1.6-7.1c-.1.2-.2.3-.2.5s-.1.4-.2.5h.2Zm0-.6a2.6,2.6,0,0,0,.7-1.6c.1-.7.2-1.3.3-1.7a7.5,7.5,0,0,0-.5,1.6C258.3,73.1,258.2,73.7,258,74.3Zm3.8,14.8-.3.2-.3.5h.1Zm-.3-11.7a31.9,31.9,0,0,0,2.1-5.9c.6-2,1.1-4.1,1.6-6.2-.7,2-1.4,4-2,6S262,75.3,261.5,77.4Zm8.1-15.2h-.2l-.2.9h.2Zm.8,3-.4.8Zm1.4-5.3a15.7,15.7,0,0,0,.8-3.1c-.2.1-.3.6-.5,1.3a9,9,0,0,0-.3,1.5Zm.3,3a57.9,57.9,0,0,0,4.8-5.1,32.5,32.5,0,0,1,5-4.8l.9-.6.8-.7a5.1,5.1,0,0,0-3,1.4,33.3,33.3,0,0,0-3.4,3.2,35.7,35.7,0,0,0-3.1,3.7A19.2,19.2,0,0,0,272.1,62.9Zm.1,3.5c.1,0,.2-.2.4-.5l.6-.9a5.3,5.3,0,0,0,.6-1l.4-.7Zm.6-11.2a1.3,1.3,0,0,0-.1.6Zm.2-1.1a1.1,1.1,0,0,0,0,.6Zm.3-1.3v.1Zm.2-1.1c0,.2,0,.4.1.4Zm.2,16a30.2,30.2,0,0,0,3.5-4.5,25.4,25.4,0,0,1,3.5-4.6h0l-1.3,1.3-2.3,2.9-2.3,3.1A5.7,5.7,0,0,0,273.7,67.7Zm10.4-10.8a10.1,10.1,0,0,0-2.4,1.9l-3.2,3.4c-1,1.3-2,2.5-2.8,3.7a9,9,0,0,0-1.6,2.6l1.4-1.6-.4,1.3.2.2a8.9,8.9,0,0,0,4.2-1.5,17.5,17.5,0,0,0,3.8-3.4,25.9,25.9,0,0,0,3.2-4.2c.9-1.5,1.7-2.8,2.3-4h-.3a6,6,0,0,0-3,1.4l-3.6,3-3.5,3.5c-1,1.2-1.8,2.1-2.2,2.7a32.3,32.3,0,0,1,3.8-4.5C281.4,59.9,282.7,58.4,284.1,56.9Zm-9.7,6.2a4.6,4.6,0,0,0,.7-1l-.6.5Zm2.4-25.6v0Zm10,25.2a1.2,1.2,0,0,0-.7.5,1,1,0,0,1-.6.5,20.9,20.9,0,0,1,1.4-1.7,6.6,6.6,0,0,0,1.2-1.7c-1.1,1.4-2.3,2.7-3.4,3.9a30.6,30.6,0,0,1-3.6,3.6h.1a9.2,9.2,0,0,0,3.2-2.1,14.2,14.2,0,0,0,2.4-3Zm.5,6H287l-.3.3h.3Zm1.7-5.1-1,1.3a3.8,3.8,0,0,0-.9,1.1l1.3-1.2a6.4,6.4,0,0,0,1-1.3Zm3,.5a9.1,9.1,0,0,0-2,1.9,18,18,0,0,1-2,1.9A13.2,13.2,0,0,0,292,64.1Zm-3.4,40.1V104h-.1v.5h.1Zm2.2-1.7a1.3,1.3,0,0,0-.2-.8v.2Zm.9-3.3v-.3l-.3.3v.2Zm.6-.9h-.1l-.7.4h0ZM294.6,63a1.5,1.5,0,0,1,.6-.9Z"
    transform="translate(-1 -4)" style="fill:#e88075" />
  <path
    d="M329.2,57.1a9.3,9.3,0,0,1-.8,4.1,27.6,27.6,0,0,1-2.5,4.4,33,33,0,0,1-3.2,4,17.8,17.8,0,0,1-3.3,2.7l-.4.6a4.2,4.2,0,0,0,1.5-1,15.1,15.1,0,0,0,2-1.7l1.7-1.8,1.3-1.5.8-.3-2.8,2.8a34,34,0,0,1-4,3.4,47,47,0,0,1-4.1,3,9.5,9.5,0,0,1-3.5,1.3h-.5l-1.7.7-1.7.4h-1.9a24.2,24.2,0,0,1-.3,2.5,19.3,19.3,0,0,0-.1,2.4,4.5,4.5,0,0,0,.1,1.1,2.8,2.8,0,0,0,.3,1.3l.6,1.1a1,1,0,0,0,1,.4,10.7,10.7,0,0,0,4.1-.8,24.3,24.3,0,0,0,3.5-2l3.3-2.4,3.5-2.4a7.9,7.9,0,0,1-1.9,2.5,16.4,16.4,0,0,1-2.5,2.1,8.3,8.3,0,0,0,2.7-1.9,8.3,8.3,0,0,1,2.8-2.1l-.4.6,1.1-.2v.6l.2.3L321.5,84l-2.7,2.8.3-.2a10.4,10.4,0,0,1-1.8,2,17.9,17.9,0,0,1-2.6,2,19.1,19.1,0,0,1-2.8,1.5,6,6,0,0,1-2.6.7,14.4,14.4,0,0,1-6.3-1,15.1,15.1,0,0,1-4.9-3.3,14.4,14.4,0,0,1-3.4-4.9,18.1,18.1,0,0,1-1.3-6.3,23.7,23.7,0,0,1,1.8-9.9,47.1,47.1,0,0,1,5.3-10.5,37.3,37.3,0,0,1,7.9-8.4,16.3,16.3,0,0,1,9.3-3.7,8.2,8.2,0,0,1,4.4,1,12.5,12.5,0,0,1,3.7,2.8,14.7,14.7,0,0,1,2.4,4A12.6,12.6,0,0,1,329.2,57.1Zm-24.3-.8a44,44,0,0,1,4.6-4,34.7,34.7,0,0,0,4.7-3.9,2.4,2.4,0,0,1-1.2,0l-.6.2-1.9,1.7-2.3,2a20.8,20.8,0,0,0-2.1,2.1,4.1,4.1,0,0,0-1.3,1.8Zm2.3-3.9-.9,1-1,1,1-.9ZM308.4,71a33.6,33.6,0,0,0,4.4-3.1,51.1,51.1,0,0,0,4.8-4.5,43.3,43.3,0,0,0,3.9-5.1,9.1,9.1,0,0,0,1.4-5c0-.4-.1-.5-.5-.5s-2.5.8-3.9,2.3a37.7,37.7,0,0,0-4.2,5.3q-1.9,3-3.6,6Zm3.9-9.7-.8,1-.9,1.4a11,11,0,0,0-.9,1.4,3.3,3.3,0,0,0-.3,1h.1l1.5-2.3A8.5,8.5,0,0,0,312.3,61.3Zm-2.6-5.1a6.6,6.6,0,0,0,2-1.6l1.8-2-2,1.6A8.6,8.6,0,0,0,309.7,56.2Zm2.1,14.9a23.6,23.6,0,0,0,4.7-3.4,18,18,0,0,0,3.8-4.3l-1.5.7a3.8,3.8,0,0,0-.9,1.3,16.9,16.9,0,0,1-3.2,2.8A15.9,15.9,0,0,0,311.8,71.1Zm6-18.4-1.4,1.1-1.7,1.8c-.5.7-1.1,1.3-1.6,1.9l-1.2,1.6,3-3.2C315.9,54.9,316.9,53.8,317.8,52.7Zm2.4.3-1.7,1a21.9,21.9,0,0,0-2.3,2.1L314,58.2a3.1,3.1,0,0,0-.9,1.7h.1a39.8,39.8,0,0,1,3.5-3.6C317.9,55.3,319.1,54.2,320.2,53ZM318,69.2a25.2,25.2,0,0,0,2.5-2.1l2.2-2.3Zm1.5-5.3-.5.8-.7.4Zm4.4,2.9-.8.7-1.4,1.3-1.9,1.9a2.1,2.1,0,0,0,.9-.5L322,69l1.2-1.3ZM321,62.1l-.9.9h.5l.3-.3h.3v-.3Zm5.9,3.2c0-.1.1-.3.4-.7l.6-.7a1.2,1.2,0,0,1-.4.8Z"
    transform="translate(-1 -4)" style="fill:#e88075" />
  <path
    d="M335.4,92.3a6.7,6.7,0,0,1-3.3-.6,5.8,5.8,0,0,1-2.1-2,8.3,8.3,0,0,1-1.1-2.9c-.2-1.1-.3-2.1-.4-3.2a54.3,54.3,0,0,1,.6-8.9c.5-3.9,1.2-8.2,2.2-12.8s2.1-9.4,3.5-14.3,3.1-9.2,4.8-13.2a41.1,41.1,0,0,1,6-9.8c2.1-2.6,4.4-4,6.9-4.1H354v.3l-.4.4.2.2.5-.2h1.7a.8.8,0,0,1,.4.9,2.3,2.3,0,0,0,1.3.6c.3.2.5.4.5.6v.2h-.1l-.6,1.1a8.6,8.6,0,0,0-1,1.6,6,6,0,0,0-.9,1.5,1.9,1.9,0,0,0-.4,1v.2l1.5-2.5,1.6-2.4h.5a5.9,5.9,0,0,1-.6,1.8c-.4,1-.8,2-1.3,3l-1.5,3.1c-.5,1-.8,1.7-1,2.2a12.1,12.1,0,0,0-.5,1.4,8.3,8.3,0,0,1-.4,1.5c-.5,1.6-1.1,3.2-1.7,4.7s-1.4,3.2-2,4.8l-3.4,9.4c-1.2,3.2-2.3,6.5-3.3,9.8s-1.9,6.7-2.6,10.1a68,68,0,0,0-1.4,9.8,1.3,1.3,0,0,0-.1.6v.7a1.2,1.2,0,0,0,.3.9l.9-7.2a62.7,62.7,0,0,1,1.3-7.1c1.7-6.4,3.7-12.7,5.9-18.9l6.6-18.7a33.6,33.6,0,0,1,2.6-5.4,26.9,26.9,0,0,0,2.6-5.4,18.3,18.3,0,0,1-.7,3.2c-.4,1.1-.8,2.3-1.3,3.4l-1.5,3.3-1.2,3.2q-.9,3-2.4,6.9c-.9,2.7-2,5.4-3.1,8.3s-2.2,5.8-3.3,8.8-2.1,5.9-3,8.7a73.3,73.3,0,0,0-2,8.1,28.3,28.3,0,0,0-.7,6.7c0,.3.1.6.1,1a3.7,3.7,0,0,0,.1,1.1l1.4-.2c.7-.1,1,.1,1,.6s-.3.8-.9,1.3l-2.3,1.2-2.4,1A5.4,5.4,0,0,1,335.4,92.3Zm-4-5.9,1.5-12.9c.6-4.3,1.3-8.6,2.2-12.8-.4,1.6-.9,3.4-1.3,5.3s-.9,3.9-1.4,5.9-.7,3.9-1,5.8a32.5,32.5,0,0,0-.2,5.3,9.7,9.7,0,0,0,.1,1.7A10.3,10.3,0,0,1,331.4,86.4Zm1.5-20.8.2.2v-.2Zm.3-1.2v.2l.3-.8a2.4,2.4,0,0,0,.2-.9l-.3.2Zm.6-3c.1-.6.2-1.3.4-2.2s.5-1.8.7-2.8.5-1.8.8-2.7.4-1.7.6-2.4l-.7,2.3a22.9,22.9,0,0,0-.9,2.8l-.6,2.7a10.3,10.3,0,0,0-.3,2.2ZM335,86.6a.4.4,0,0,0,.1-.3V84.8a3.8,3.8,0,0,0,.1-1l-.2-1.9a24.2,24.2,0,0,0-.2,3.8v.9Zm1.6-36.5h.2l.2-.9h-.1ZM338,66h-.1l-.2.2.2.3Zm.1,20.3V84.5c-.1-.6-.1-1.2-.2-1.8a3.4,3.4,0,0,0-.1,1v1.1a16.5,16.5,0,0,0,.4,3.1ZM338,45.7c.5-1.3,1.1-2.5,1.5-3.4s1-2.1,1.5-3.3l1.6-3.4,1.3-2.9c.4-.8.7-1.3.8-1.6-1.1,2.4-2.2,4.9-3.1,7.3s-1.7,5-2.5,7.5a81.1,81.1,0,0,1,3.1-8.2,46.6,46.6,0,0,1,4.1-7.6,17.9,17.9,0,0,1,2.5-3.1,10.4,10.4,0,0,0,2.2-3.1,4.6,4.6,0,0,0-2.9,1.9,25.4,25.4,0,0,0-2.3,3.4l.3-.8a15.8,15.8,0,0,0-2.1,3.3c-.8,1.6-1.7,3.3-2.5,5.1l-2.2,5.1A28.6,28.6,0,0,0,338,45.7Zm.1,19.9a32.4,32.4,0,0,0,1.6-5.3c.5-1.8.9-3.6,1.4-5.4a23.2,23.2,0,0,1,1.6-4.4l2-4.4c.6-1.4,1.2-2.9,1.7-4.4a16.4,16.4,0,0,0,1-4.5,51.7,51.7,0,0,0-2.5,5.4q-1.5,3.9-3,8.4c-1,3.1-1.9,5.9-2.6,8.6a33.3,33.3,0,0,0-1.3,5.7Zm3.2,1.6,2.2-6.4,2.2-6.2c.7-2.3,1.5-4.5,2.2-6.5s1.3-4,1.9-5.5l1.2-3.4-.3.2a120.1,120.1,0,0,0-5.2,13.7Zm3.5-36.3.2-.3Zm.2-.3a7,7,0,0,1,.8-1.4Zm8.2-4.4a20.7,20.7,0,0,0-3.3,5.2c-.9,1.9-1.7,3.8-2.5,5.7q1.4-2.7,3-5.4C351.4,29.9,352.3,28.1,353.2,26.2Zm1.6,3.7c-.1,0-.3.3-.5.8a7.5,7.5,0,0,0-.8,1.8l-.8,1.8-.4,1.2a2.9,2.9,0,0,0,.7-1l.6-1.6.6-1.6a3.5,3.5,0,0,1,.7-1.2Z"
    transform="translate(-1 -4)" style="fill:#e88075" />
  <path
    d="M362.7,89.6a10,10,0,0,1-5.1-1.1,14.2,14.2,0,0,1-4.1-3.2,16.7,16.7,0,0,1-2.8-4.6,13.4,13.4,0,0,1-1.1-5.1,29,29,0,0,1,1.4-10,40.9,40.9,0,0,1,4.6-10.5,34.9,34.9,0,0,1,7.1-8.5,15.8,15.8,0,0,1,9.3-3.7,16.3,16.3,0,0,1,9.1,2.3,15.1,15.1,0,0,1,6.3,6.9v.7a1.6,1.6,0,0,1,.3,1.1,27.7,27.7,0,0,1-.3,3.9,12.9,12.9,0,0,0-.3,3.9v.2l.2-.2.2-.4a.1.1,0,0,0,.1.1v.2a8.1,8.1,0,0,1-.3,3,21.7,21.7,0,0,1-.8,3,34.1,34.1,0,0,1-3.4,7.6,36.8,36.8,0,0,1-5.3,7,27.1,27.1,0,0,1-7,5.2A17.5,17.5,0,0,1,362.7,89.6Zm-5.5-32.7-.5,1-.5,1.1Zm6.9-7.6a8.3,8.3,0,0,1-1.6,2.1l-2.3,2.2a22.8,22.8,0,0,0-2.2,2.8,13.6,13.6,0,0,0-1.8,4.2,1.7,1.7,0,0,0,.6-.6,2.5,2.5,0,0,0,.4-.7A42.1,42.1,0,0,1,361,54l4.1-4.9Zm-6.3,6.4.2.3v-.5Zm2.1,6.7c.8-1.1,1.4-2.3,2.1-3.4a39,39,0,0,1,1.9-3.5,3.9,3.9,0,0,0-.9,1.1,10.7,10.7,0,0,0-1.3,2.1c-.4.8-.8,1.5-1.1,2.2Zm2.7,5v-.2h-.2a.4.4,0,0,0-.1.3h.2Zm7.1-14.1a32.8,32.8,0,0,0-3.9,5.8,42.4,42.4,0,0,0-2.8,6.5h0l2-4.5a20.6,20.6,0,0,1,2.4-3.9A18,18,0,0,0,369.7,53.3Zm4.3-1.8q-1.5.4-3.3,3a37,37,0,0,0-3.5,5.5,45.3,45.3,0,0,0-2.8,5.9,16,16,0,0,0-1.1,4.4c.1.2.1.2.2.2a16.6,16.6,0,0,0,1.1-3.8,16.3,16.3,0,0,1,1.3-3.7,27.6,27.6,0,0,1,3.8-5.8A71,71,0,0,0,374,51.5Zm4.7,3.2c0-.9-.1-1.7-.1-2.6a7,7,0,0,0-.5-2.5c-.1,0-.1,0-.1-.1h-.2a2.3,2.3,0,0,0-1.3.7l-1.8,1.6L373,53.6l-1.1,1.3a29.3,29.3,0,0,0-2.9,4.5,61.1,61.1,0,0,0-2.7,5.8c-.7,2-1.4,4-1.9,6a21.5,21.5,0,0,0-.6,5.3,8.2,8.2,0,0,0,.1,1.4,14.9,14.9,0,0,0,.2,2.1,7.8,7.8,0,0,0,.5,1.8c.2.6.5.8.8.8l.8-.3a1.5,1.5,0,0,0,.6-.4,18.5,18.5,0,0,0,5.1-5.4,29.5,29.5,0,0,0,2.8-6.3c.7-2.2,1.3-4.4,1.8-6.7a37.3,37.3,0,0,1,2.3-6.9Zm-5.2,22.8a9.2,9.2,0,0,0,1.3-1.7,22,22,0,0,0,1.5-2.6c.4-.9.8-1.8,1.1-2.7a7.6,7.6,0,0,0,.5-2.1l-.2-.5-1,1.9.9-1.6a14.6,14.6,0,0,1-2,4.6A18.2,18.2,0,0,0,373.5,77.5Zm6.7-8.5a6.3,6.3,0,0,1-.7,2.2,18,18,0,0,0-.8,2.1h0c.1,0,.2-.2.5-.7s.4-1.1.7-1.7a13.4,13.4,0,0,1,.7-1.8l.5-1.3Zm3.4-1.3c-.6,1.3-1.1,2.7-1.8,4a25,25,0,0,0-1.6,4.1,5,5,0,0,0,1-1.5l1.4-3c.4-1.1.9-2.1,1.2-3.1a8.4,8.4,0,0,0,.6-1.8h0a1.8,1.8,0,0,1-.7,1v-.2h-.2Zm3.2-5.1c-.2,0-.3.2-.4.4a4.3,4.3,0,0,1-.1.5,48.5,48.5,0,0,1-2.9,7.5,65.1,65.1,0,0,0-3.1,7.2,28.4,28.4,0,0,0,1.8-3.1c.5-1.1,1-2.3,1.4-3.4l1.3-3.3a11.3,11.3,0,0,1,1.4-2.7,7.7,7.7,0,0,1,.2-1.5A9.4,9.4,0,0,0,386.8,62.6ZM381.1,67l.3.2.2-.3v-.4l-.4.2Z"
    transform="translate(-1 -4)" style="fill:#e88075" />
  <path
    d="M412.5,42.8a11.1,11.1,0,0,1,3.6.4,12.6,12.6,0,0,1,3.3,1.6,11.8,11.8,0,0,1,2.5,2.5,6.1,6.1,0,0,1,1.1,3.5,4.9,4.9,0,0,1-.5,2.4,30.7,30.7,0,0,1-1.6,3.1,13.7,13.7,0,0,1-2,2.6,5,5,0,0,1-2,1.5l1.6-2a7.5,7.5,0,0,1-1.3,1.1,4.1,4.1,0,0,1-1.4.8l-.4-.5v-.6a1.9,1.9,0,0,1-1,.8l-.4-.2,1.9-3.2.4-.4a.6.6,0,0,0,.3-.6v-.4a4.5,4.5,0,0,0-1.5,1.8,6.2,6.2,0,0,1-1.5,2,9.3,9.3,0,0,1,1.4-3.8l1.9-3.7a20.7,20.7,0,0,0-5.8,5.2,67.1,67.1,0,0,0-5.4,8.1,54.6,54.6,0,0,0-4.1,8.9,25.2,25.2,0,0,0-1.4,7.7c.1.3.1.8.2,1.4s.5.9.9.9a8.7,8.7,0,0,0,3.7-1.1,30,30,0,0,0,3.7-2.5,33.4,33.4,0,0,0,3.3-3.2,32.9,32.9,0,0,0,2.6-3.1l1.2-1.5a5.2,5.2,0,0,1,1.2-1.3v.3a39.2,39.2,0,0,1-3.7,4.6,22.1,22.1,0,0,0-3.3,4.7,17.2,17.2,0,0,0,2.2-2l2.3-3,2.2-2.6a7,7,0,0,1,1.4-1.5,5.6,5.6,0,0,1-.4,1.2l-.6,1.1a3.2,3.2,0,0,1,.8-.9,1.8,1.8,0,0,1,.9-.7v.4l-.6,1.4,1-1.1a21.5,21.5,0,0,1-1.7,3.4.9.9,0,0,1-.3.7l-.6.6q.2-.3.3,0c0,.1-.2.3-.6.5s-.6.4-.6.6h.1l.3-.2h0l-2.7,3.5a27.3,27.3,0,0,1-3.3,3.5,25.5,25.5,0,0,1-3.9,2.8,11.1,11.1,0,0,1-4.2,1.2,18.5,18.5,0,0,1-5.8-.6,14,14,0,0,1-4.9-2.4,13.3,13.3,0,0,1-3.3-4.1,13.1,13.1,0,0,1-1.5-5.8,23.5,23.5,0,0,1,.8-6.7,60.6,60.6,0,0,1,2.7-7.4,41.6,41.6,0,0,1,4.2-7.3,46.5,46.5,0,0,1,5.3-6.3,31.9,31.9,0,0,1,6.1-4.5A14.9,14.9,0,0,1,412.5,42.8ZM395.8,59.4a11.8,11.8,0,0,0,2.2-1.9l2.6-2.8,2.7-3a11.6,11.6,0,0,1,2.6-2.4l2.2-1.8,2.3-1.8a7.3,7.3,0,0,0-3.7,1.8,49.4,49.4,0,0,0-4.4,3.9,55.7,55.7,0,0,0-4.1,4.5A18.3,18.3,0,0,0,395.8,59.4Zm1.3-3.2,2.1-2.2,2.1-2.4a15,15,0,0,0-2.3,2.2A27.9,27.9,0,0,0,397.1,56.2Zm3,24-.2-.2-.3.6v.3h.2Zm-.2-3.7.2.2V75.4Zm1-3.2-.2-.5a2.9,2.9,0,0,0-.2.9v.2Zm0-13.6a39.7,39.7,0,0,0,4.4-4.8,50.1,50.1,0,0,1,4.4-4.8,41.2,41.2,0,0,0-4.8,4.5A49.9,49.9,0,0,0,400.9,59.7Zm1.4,10.4a5,5,0,0,1,.9-2.4,6,6,0,0,0,1-2.3,10.5,10.5,0,0,0-2,3.4L401,72.5Zm2.4-5.2a29.6,29.6,0,0,1,5.4-8,49.9,49.9,0,0,1,7.3-6.5c-.8,0-1.9.7-3.4,2a58.1,58.1,0,0,0-4.3,4.3,38.4,38.4,0,0,0-3.8,4.9c-1.1,1.6-1.6,2.8-1.5,3.5h0Zm1.4-12.6a2.5,2.5,0,0,0-.5.7Zm8.2-1.9c-1.6,1.3-3.2,2.5-4.7,3.9a17.4,17.4,0,0,0-3.8,4.7,3.2,3.2,0,0,0,.9-.8l.8-.9a22,22,0,0,1,3.3-3.5Zm1.6,28.5-1.2,1.4-.7,1.1-.4.6a13.4,13.4,0,0,0,1.3-1.5,7.6,7.6,0,0,0,1.1-1.6Zm-1.2.8-.6.5-.5.7.6-.5Zm1.3-4.1.4-.3.2-.4-.6.4Zm1.1-18.2a3.4,3.4,0,0,0,1.5-1.9l-.8.9Zm1.7-5.5h-.2l-.3.5v.3Zm-.5,8.1,1.5-1.6,1.4-1.6h.1a11.4,11.4,0,0,1-1.4,1.6C419.2,59.2,418.6,59.7,418.3,60Zm.7-2.7a1.4,1.4,0,0,1-.2.6l1.3-1.5c-.1.2-.3.3-.6.5Zm.5-3.6-.3.4v.4Zm.7-.4-.3-.3h-.2l.2.3Zm1.9,1.8-.5,1.1h0Z"
    transform="translate(-1 -4)" style="fill:#e88075" />
  <path
    d="M462.5,93.5a.5.5,0,0,1-.4-.6c-.1.3-.3.7-.4,1.1a.8.8,0,0,1-.9.6l-.4-.3h-.5l.6.7-.5-.2-.7.2.6.3-1.1.9a3.3,3.3,0,0,1-1.2.6h-.4c-.2,0-.3-.1-.3-.2s.2.6.1.8a4.8,4.8,0,0,1-1.8.4,18,18,0,0,1-7.5-1.3,24.1,24.1,0,0,1-6.9-4.2,20,20,0,0,1-5.1-6.1,16.2,16.2,0,0,1-2.1-7.4V77.6l-.3-.5H433l-.4.9a1.8,1.8,0,0,1-.6.8,1.3,1.3,0,0,1-.7,1l-1.2.8h.9l-.6,1-1.3,1.4-1.3,1.5-1,1,.2-1.5L425.3,86v-.6l-.4-.5h-.3c-.1.3-.1.6-.2,1s-.2.6-.5.6h-.3l-.2-1.4a42.9,42.9,0,0,0,1.3-6c.2-2,.6-4,1-6s1.2-5.3,1.9-7.8,1.3-5.1,1.9-7.7c-1.1,3.3-2.1,6.7-2.9,10.1l-2.4,10.1V76.3c0-.2,0-.3.1-.3H424a5,5,0,0,0-.2,1.7,1.2,1.2,0,0,0,.2.7c-.2.7-.3,1.3-.5,1.9a13.3,13.3,0,0,0-.5,1.9c.1.1.1.2,0,.6a4.4,4.4,0,0,1-.2,1,3.6,3.6,0,0,1-.4,1.1,4.1,4.1,0,0,0-.2.7h-.5a2.8,2.8,0,0,1-.1-1,26.8,26.8,0,0,1,.5-5.6c.3-2.6.8-5.6,1.4-9.1s1.4-7.1,2.4-11.2,1.8-8,2.9-12.1,2-7.9,3.1-11.7,2.2-7.1,3.3-10a54.7,54.7,0,0,1,3.1-7c1-1.8,1.8-2.7,2.6-2.8l.3.3-.3.5v1.6l.6-.4L442,16l1.4.4a9.8,9.8,0,0,1,1.6,2.1,9.2,9.2,0,0,1,.6,2.5,9.9,9.9,0,0,1-.1,1.5c0,.7-.1,1.4-.1,2.2s-.1,1.5-.2,2.1a8,8,0,0,1-.1,1.1h.1a8.9,8.9,0,0,1,.2-1.1c0-.4.1-1,.1-1.5a8.6,8.6,0,0,1,.1-1.6c0-.5.1-.9.1-1.2a137.6,137.6,0,0,1-1.1,14.3,68.8,68.8,0,0,1-3.4,13.9,9.1,9.1,0,0,0,3.7-2.4l3.3-3.3a22.6,22.6,0,0,1,3.5-2.8,7.7,7.7,0,0,1,4.4-1.4,4.7,4.7,0,0,1,2.7.8,9.6,9.6,0,0,1,2.5,2,12.6,12.6,0,0,1,1.9,2.8,6.3,6.3,0,0,1,.8,2.7v.6a1.1,1.1,0,0,1-.2.6,17.9,17.9,0,0,1-3.3,7.3,24.4,24.4,0,0,1-5.7,5.4v.3a3.4,3.4,0,0,0,1.7-.9l2.2-2.1a22.9,22.9,0,0,0,2.1-2.3c.7-.7,1.2-1.3,1.6-1.6h.1a3.5,3.5,0,0,1-1.1,1.9,33.2,33.2,0,0,1-2.7,2.5l-3.1,2.3a11.9,11.9,0,0,1-2.2,1.3,3.6,3.6,0,0,1-1.3,1.1l-1.9.9a7.6,7.6,0,0,1-2,.6l-1.7.3H445c-.6,0-.9.2-.9.5a5.4,5.4,0,0,0,.1,1.1l.3,1.6c.1.5.3,1,.4,1.5a1.9,1.9,0,0,0,.4,1,2.5,2.5,0,0,0-.1.8c.1.2.1.5.2.8l.6,1.4c.3.8.5,1.7.8,2.6a27.6,27.6,0,0,1,.8,2.7,7.4,7.4,0,0,0,.6,1.8q-.4.2,0,.6l.7.6.9,2.6.9,2.6v.4a14.5,14.5,0,0,1,1.8,1.6,5.6,5.6,0,0,0,2,1.4l1.9-.7,1.6-.9.9-.4,2.4-1.9-.5,1.5.8-.4.7-.5v.8l1.1-.4v1.2l-.4.4h.5c.2-.2.3-.3.5-.3v.2ZM424.3,75h-.1v.2l.2.2Zm1.6-7.1c-.1.1-.1.3-.2.5a.9.9,0,0,1-.1.5h.2Zm.1-.7a2.6,2.6,0,0,0,.6-1.5c.1-.8.2-1.3.3-1.8a9.8,9.8,0,0,1-.5,1.6C426.3,66.1,426.1,66.6,426,67.2ZM429.8,82l-.4.2-.2.5h.1Zm-.3-11.7a29.5,29.5,0,0,0,2.1-5.9l1.5-6.1c-.7,2-1.3,4-1.9,6A59,59,0,0,0,429.5,70.3Zm8.1-15.2h-.2l-.2,1h.1Zm.8,3.1c-.1,0-.2.2-.5.7Zm1.4-5.4a14.1,14.1,0,0,0,.7-3.1,3.9,3.9,0,0,0-.4,1.4,8.7,8.7,0,0,0-.3,1.4Zm.3,3.1c1.7-1.7,3.2-3.4,4.7-5.2a32.7,32.7,0,0,1,5.1-4.7,3,3,0,0,1,.8-.7l.8-.6a5.1,5.1,0,0,0-2.9,1.4,24.5,24.5,0,0,0-3.4,3.1,33.8,33.8,0,0,0-3.1,3.7A25.3,25.3,0,0,0,440.1,55.9Zm.1,3.4.4-.4.6-1,.6-.9a2.6,2.6,0,0,0,.3-.7Zm.5-11.1v0ZM441,47a1.1,1.1,0,0,0-.1.6Zm.2-1.2v.1Zm.3-1.2c0,.3,0,.4.1.5Zm.2,16a22.5,22.5,0,0,0,3.5-4.5,21,21,0,0,1,3.5-4.5h0c-.2,0-.6.4-1.3,1.3L445,55.7l-2.2,3A6.9,6.9,0,0,0,441.7,60.6ZM452,49.8a20.2,20.2,0,0,0-2.4,2c-1,1-2.1,2.2-3.1,3.4l-2.9,3.6a9.5,9.5,0,0,0-1.5,2.7l1.3-1.6-.4,1.2.2.2a8,8,0,0,0,4.3-1.5,23,23,0,0,0,3.8-3.3,39,39,0,0,0,3.2-4.2c.9-1.5,1.7-2.8,2.3-4l-.3-.2a5.6,5.6,0,0,0-3,1.4c-1.2.9-2.4,2-3.6,3.1a38.5,38.5,0,0,0-3.5,3.5,23.8,23.8,0,0,0-2.2,2.7,28.2,28.2,0,0,1,3.8-4.6Zm-9.7,6.3.8-1-.6.5Zm2.5-25.6a.7.7,0,0,0-.1.5Zm10,25.1a1.3,1.3,0,0,0-.7.5l-.6.6,1.3-1.7a9.6,9.6,0,0,0,1.3-1.7l-3.4,3.9L449,60.8h.1a10,10,0,0,0,3.3-2.2,10.5,10.5,0,0,0,2.4-3Zm.5,6.1h-.4l-.2.3h.2Zm1.6-5.2a4,4,0,0,1-1,1.3c-.5.6-.8,1-.8,1.2l1.2-1.2a7.6,7.6,0,0,0,1.1-1.4Zm3.1.6a9.1,9.1,0,0,0-2.1,1.8,11.9,11.9,0,0,1-1.9,2A16.1,16.1,0,0,0,460,57.1Zm-3.4,40.1v-.3h-.1l-.2.3v.3h.1Zm2.1-1.7a2.2,2.2,0,0,0-.1-.9v.2Zm1-3.3v-.3l-.3.3v.2Zm.6-.9h-.1l-.8.3h.1ZM462.6,56a1.4,1.4,0,0,1,.6-1Z"
    transform="translate(-1 -4)" style="fill:#e88075" />
</svg>